<mxfile host="app.diagrams.net" agent="Mozilla/5.0 (Windows NT 10.0; Win64; x64) AppleWebKit/537.36 (KHTML, like Gecko) Chrome/134.0.0.0 Safari/537.36 Edg/134.0.0.0" version="26.1.2">
  <diagram name="Customer Experience Flow" id="9g3b7g8T8bf7-M8XHFPc">
    <mxGraphModel dx="1056" dy="553" grid="1" gridSize="10" guides="1" tooltips="1" connect="1" arrows="1" fold="1" page="1" pageScale="1" pageWidth="827" pageHeight="1169" background="none" math="0" shadow="1">
      <root>
        <mxCell id="0" />
        <mxCell id="1" parent="0" />
        <mxCell id="pwAhBjS30zTLEMDWYvbB-5" value="" style="edgeStyle=orthogonalEdgeStyle;rounded=1;orthogonalLoop=1;jettySize=auto;html=1;labelBackgroundColor=none;strokeColor=#A8201A;fontColor=default;shadow=0;backgroundOutline=0;sketch=1;curveFitting=1;jiggle=2;" parent="1" source="pwAhBjS30zTLEMDWYvbB-2" target="pwAhBjS30zTLEMDWYvbB-4" edge="1">
          <mxGeometry relative="1" as="geometry" />
        </mxCell>
        <mxCell id="pwAhBjS30zTLEMDWYvbB-2" value="App Launch" style="rounded=1;whiteSpace=wrap;html=1;labelBackgroundColor=none;fillColor=#FAE5C7;strokeColor=#0F8B8D;fontColor=#143642;shadow=0;backgroundOutline=0;sketch=1;curveFitting=1;jiggle=2;" parent="1" vertex="1">
          <mxGeometry x="200" y="10" width="120" height="60" as="geometry" />
        </mxCell>
        <mxCell id="pwAhBjS30zTLEMDWYvbB-7" value="Yes" style="edgeStyle=orthogonalEdgeStyle;rounded=1;orthogonalLoop=1;jettySize=auto;html=1;labelBackgroundColor=none;strokeColor=#A8201A;fontColor=default;shadow=0;backgroundOutline=0;sketch=1;curveFitting=1;jiggle=2;" parent="1" source="pwAhBjS30zTLEMDWYvbB-4" target="pwAhBjS30zTLEMDWYvbB-6" edge="1">
          <mxGeometry relative="1" as="geometry" />
        </mxCell>
        <mxCell id="pwAhBjS30zTLEMDWYvbB-16" value="No" style="edgeStyle=orthogonalEdgeStyle;rounded=1;orthogonalLoop=1;jettySize=auto;html=1;entryX=0.5;entryY=0;entryDx=0;entryDy=0;labelBackgroundColor=none;strokeColor=#A8201A;fontColor=default;shadow=0;backgroundOutline=0;sketch=1;curveFitting=1;jiggle=2;" parent="1" source="pwAhBjS30zTLEMDWYvbB-4" target="pwAhBjS30zTLEMDWYvbB-15" edge="1">
          <mxGeometry relative="1" as="geometry" />
        </mxCell>
        <mxCell id="pwAhBjS30zTLEMDWYvbB-4" value="First time User?" style="rhombus;whiteSpace=wrap;html=1;rounded=1;labelBackgroundColor=none;fillColor=#FAE5C7;strokeColor=#0F8B8D;fontColor=#143642;shadow=0;backgroundOutline=0;sketch=1;curveFitting=1;jiggle=2;" parent="1" vertex="1">
          <mxGeometry x="220" y="140" width="80" height="80" as="geometry" />
        </mxCell>
        <mxCell id="pwAhBjS30zTLEMDWYvbB-9" value="" style="edgeStyle=orthogonalEdgeStyle;rounded=1;orthogonalLoop=1;jettySize=auto;html=1;labelBackgroundColor=none;strokeColor=#A8201A;fontColor=default;shadow=0;backgroundOutline=0;sketch=1;curveFitting=1;jiggle=2;" parent="1" source="pwAhBjS30zTLEMDWYvbB-6" target="pwAhBjS30zTLEMDWYvbB-8" edge="1">
          <mxGeometry relative="1" as="geometry" />
        </mxCell>
        <mxCell id="pwAhBjS30zTLEMDWYvbB-6" value="Show Onboarding splash screen&amp;nbsp;" style="whiteSpace=wrap;html=1;rounded=1;labelBackgroundColor=none;fillColor=#FAE5C7;strokeColor=#0F8B8D;fontColor=#143642;shadow=0;backgroundOutline=0;sketch=1;curveFitting=1;jiggle=2;" parent="1" vertex="1">
          <mxGeometry x="360" y="150" width="120" height="60" as="geometry" />
        </mxCell>
        <mxCell id="pwAhBjS30zTLEMDWYvbB-23" style="edgeStyle=orthogonalEdgeStyle;rounded=1;orthogonalLoop=1;jettySize=auto;html=1;labelBackgroundColor=none;strokeColor=#A8201A;fontColor=default;shadow=0;backgroundOutline=0;sketch=1;curveFitting=1;jiggle=2;" parent="1" source="pwAhBjS30zTLEMDWYvbB-8" target="pwAhBjS30zTLEMDWYvbB-20" edge="1">
          <mxGeometry relative="1" as="geometry" />
        </mxCell>
        <mxCell id="pwAhBjS30zTLEMDWYvbB-8" value="Register screen / Sign-In" style="whiteSpace=wrap;html=1;rounded=1;labelBackgroundColor=none;fillColor=#FAE5C7;strokeColor=#0F8B8D;fontColor=#143642;shadow=0;backgroundOutline=0;sketch=1;curveFitting=1;jiggle=2;" parent="1" vertex="1">
          <mxGeometry x="530" y="240" width="120" height="60" as="geometry" />
        </mxCell>
        <mxCell id="pwAhBjS30zTLEMDWYvbB-18" value="Yes" style="edgeStyle=orthogonalEdgeStyle;rounded=1;orthogonalLoop=1;jettySize=auto;html=1;labelBackgroundColor=none;strokeColor=#A8201A;fontColor=default;shadow=0;backgroundOutline=0;sketch=1;curveFitting=1;jiggle=2;" parent="1" source="pwAhBjS30zTLEMDWYvbB-15" target="pwAhBjS30zTLEMDWYvbB-17" edge="1">
          <mxGeometry relative="1" as="geometry" />
        </mxCell>
        <mxCell id="pwAhBjS30zTLEMDWYvbB-73" value="No" style="edgeStyle=orthogonalEdgeStyle;rounded=1;orthogonalLoop=1;jettySize=auto;html=1;labelBackgroundColor=none;strokeColor=#A8201A;fontColor=default;shadow=0;backgroundOutline=0;sketch=1;curveFitting=1;jiggle=2;" parent="1" source="pwAhBjS30zTLEMDWYvbB-15" target="pwAhBjS30zTLEMDWYvbB-72" edge="1">
          <mxGeometry relative="1" as="geometry" />
        </mxCell>
        <mxCell id="pwAhBjS30zTLEMDWYvbB-15" value="User Signed In ?" style="rhombus;whiteSpace=wrap;html=1;rounded=1;labelBackgroundColor=none;fillColor=#FAE5C7;strokeColor=#0F8B8D;fontColor=#143642;shadow=0;backgroundOutline=0;sketch=1;curveFitting=1;jiggle=2;" parent="1" vertex="1">
          <mxGeometry x="220" y="300" width="80" height="80" as="geometry" />
        </mxCell>
        <mxCell id="pwAhBjS30zTLEMDWYvbB-27" value="" style="edgeStyle=orthogonalEdgeStyle;rounded=1;orthogonalLoop=1;jettySize=auto;html=1;exitX=0.5;exitY=1;exitDx=0;exitDy=0;labelBackgroundColor=none;strokeColor=#A8201A;fontColor=default;shadow=0;backgroundOutline=0;sketch=1;curveFitting=1;jiggle=2;" parent="1" source="pwAhBjS30zTLEMDWYvbB-17" target="pwAhBjS30zTLEMDWYvbB-26" edge="1">
          <mxGeometry relative="1" as="geometry" />
        </mxCell>
        <mxCell id="pwAhBjS30zTLEMDWYvbB-29" value="" style="edgeStyle=orthogonalEdgeStyle;rounded=1;orthogonalLoop=1;jettySize=auto;html=1;labelBackgroundColor=none;strokeColor=#A8201A;fontColor=default;shadow=0;backgroundOutline=0;sketch=1;curveFitting=1;jiggle=2;" parent="1" source="pwAhBjS30zTLEMDWYvbB-17" target="pwAhBjS30zTLEMDWYvbB-28" edge="1">
          <mxGeometry relative="1" as="geometry" />
        </mxCell>
        <mxCell id="pwAhBjS30zTLEMDWYvbB-33" value="" style="edgeStyle=orthogonalEdgeStyle;rounded=1;orthogonalLoop=1;jettySize=auto;html=1;exitX=0.5;exitY=1;exitDx=0;exitDy=0;labelBackgroundColor=none;strokeColor=#A8201A;fontColor=default;entryX=0.5;entryY=0;entryDx=0;entryDy=0;shadow=0;backgroundOutline=0;sketch=1;curveFitting=1;jiggle=2;" parent="1" source="pwAhBjS30zTLEMDWYvbB-17" target="pwAhBjS30zTLEMDWYvbB-32" edge="1">
          <mxGeometry relative="1" as="geometry">
            <Array as="points">
              <mxPoint x="260" y="570" />
              <mxPoint x="490" y="570" />
            </Array>
          </mxGeometry>
        </mxCell>
        <mxCell id="pwAhBjS30zTLEMDWYvbB-17" value="Open Home Screen" style="rounded=1;whiteSpace=wrap;html=1;labelBackgroundColor=none;fillColor=#FAE5C7;strokeColor=#0F8B8D;fontColor=#143642;shadow=0;backgroundOutline=0;sketch=1;curveFitting=1;jiggle=2;" parent="1" vertex="1">
          <mxGeometry x="200" y="470" width="120" height="60" as="geometry" />
        </mxCell>
        <mxCell id="pwAhBjS30zTLEMDWYvbB-22" value="" style="edgeStyle=orthogonalEdgeStyle;rounded=1;orthogonalLoop=1;jettySize=auto;html=1;entryX=1;entryY=0.5;entryDx=0;entryDy=0;exitX=0.5;exitY=1;exitDx=0;exitDy=0;labelBackgroundColor=none;strokeColor=#A8201A;fontColor=default;shadow=0;backgroundOutline=0;sketch=1;curveFitting=1;jiggle=2;" parent="1" source="pwAhBjS30zTLEMDWYvbB-20" target="pwAhBjS30zTLEMDWYvbB-17" edge="1">
          <mxGeometry relative="1" as="geometry">
            <Array as="points">
              <mxPoint x="590" y="500" />
            </Array>
          </mxGeometry>
        </mxCell>
        <mxCell id="pwAhBjS30zTLEMDWYvbB-20" value="Account Creation Flow" style="whiteSpace=wrap;html=1;rounded=1;labelBackgroundColor=none;fillColor=#FAE5C7;strokeColor=#0F8B8D;fontColor=#143642;shadow=0;backgroundOutline=0;sketch=1;curveFitting=1;jiggle=2;" parent="1" vertex="1">
          <mxGeometry x="530" y="340" width="120" height="60" as="geometry" />
        </mxCell>
        <mxCell id="xbocJkPdie3QbR9lWiXt-19" value="" style="edgeStyle=orthogonalEdgeStyle;rounded=0;orthogonalLoop=1;jettySize=auto;html=1;sketch=1;curveFitting=1;jiggle=2;" edge="1" parent="1" source="pwAhBjS30zTLEMDWYvbB-26" target="xbocJkPdie3QbR9lWiXt-18">
          <mxGeometry relative="1" as="geometry" />
        </mxCell>
        <mxCell id="pwAhBjS30zTLEMDWYvbB-26" value="User Search Product" style="whiteSpace=wrap;html=1;rounded=1;labelBackgroundColor=none;fillColor=#FAE5C7;strokeColor=#0F8B8D;fontColor=#143642;shadow=0;backgroundOutline=0;sketch=1;curveFitting=1;jiggle=2;" parent="1" vertex="1">
          <mxGeometry x="40" y="530" width="120" height="60" as="geometry" />
        </mxCell>
        <mxCell id="pwAhBjS30zTLEMDWYvbB-40" style="edgeStyle=orthogonalEdgeStyle;rounded=1;orthogonalLoop=1;jettySize=auto;html=1;labelBackgroundColor=none;strokeColor=#A8201A;fontColor=default;shadow=0;backgroundOutline=0;sketch=1;curveFitting=1;jiggle=2;" parent="1" source="pwAhBjS30zTLEMDWYvbB-28" target="xbocJkPdie3QbR9lWiXt-16" edge="1">
          <mxGeometry relative="1" as="geometry">
            <mxPoint x="260" y="729.9999999999998" as="targetPoint" />
          </mxGeometry>
        </mxCell>
        <mxCell id="pwAhBjS30zTLEMDWYvbB-28" value="Collections Page (Banners / Offers / special landing pages)" style="whiteSpace=wrap;html=1;rounded=1;labelBackgroundColor=none;fillColor=#FAE5C7;strokeColor=#0F8B8D;fontColor=#143642;shadow=0;backgroundOutline=0;sketch=1;curveFitting=1;jiggle=2;" parent="1" vertex="1">
          <mxGeometry x="200" y="610" width="160" height="60" as="geometry" />
        </mxCell>
        <mxCell id="xbocJkPdie3QbR9lWiXt-17" value="" style="edgeStyle=orthogonalEdgeStyle;rounded=0;orthogonalLoop=1;jettySize=auto;html=1;sketch=1;curveFitting=1;jiggle=2;" edge="1" parent="1" source="pwAhBjS30zTLEMDWYvbB-32" target="xbocJkPdie3QbR9lWiXt-16">
          <mxGeometry relative="1" as="geometry" />
        </mxCell>
        <mxCell id="pwAhBjS30zTLEMDWYvbB-32" value="Product Recommendation Engine (Previously bough / recently seen / other users have bought / suggested for you etc.," style="whiteSpace=wrap;html=1;rounded=1;labelBackgroundColor=none;fillColor=#FAE5C7;strokeColor=#0F8B8D;fontColor=#143642;shadow=0;backgroundOutline=0;sketch=1;curveFitting=1;jiggle=2;" parent="1" vertex="1">
          <mxGeometry x="380" y="610" width="220" height="60" as="geometry" />
        </mxCell>
        <mxCell id="pwAhBjS30zTLEMDWYvbB-53" value="" style="edgeStyle=orthogonalEdgeStyle;rounded=1;orthogonalLoop=1;jettySize=auto;html=1;labelBackgroundColor=none;strokeColor=#A8201A;fontColor=default;shadow=0;backgroundOutline=0;sketch=1;curveFitting=1;jiggle=2;" parent="1" source="pwAhBjS30zTLEMDWYvbB-41" target="pwAhBjS30zTLEMDWYvbB-52" edge="1">
          <mxGeometry relative="1" as="geometry" />
        </mxCell>
        <mxCell id="pwAhBjS30zTLEMDWYvbB-55" value="" style="edgeStyle=orthogonalEdgeStyle;rounded=1;orthogonalLoop=1;jettySize=auto;html=1;labelBackgroundColor=none;strokeColor=#A8201A;fontColor=default;shadow=0;backgroundOutline=0;sketch=1;curveFitting=1;jiggle=2;" parent="1" source="pwAhBjS30zTLEMDWYvbB-41" target="pwAhBjS30zTLEMDWYvbB-54" edge="1">
          <mxGeometry relative="1" as="geometry" />
        </mxCell>
        <mxCell id="pwAhBjS30zTLEMDWYvbB-41" value="Open Product Details Page" style="swimlane;fontStyle=0;childLayout=stackLayout;horizontal=1;startSize=30;horizontalStack=0;resizeParent=1;resizeParentMax=0;resizeLast=0;collapsible=1;marginBottom=0;whiteSpace=wrap;html=1;labelBackgroundColor=none;fillColor=#FAE5C7;strokeColor=#0F8B8D;fontColor=#143642;rounded=1;shadow=0;backgroundOutline=0;sketch=1;curveFitting=1;jiggle=2;" parent="1" vertex="1" collapsed="1">
          <mxGeometry x="205" y="949" width="110" height="30" as="geometry">
            <mxRectangle x="205" y="770" width="140" height="210" as="alternateBounds" />
          </mxGeometry>
        </mxCell>
        <mxCell id="pwAhBjS30zTLEMDWYvbB-42" value="Title" style="text;strokeColor=none;fillColor=none;align=left;verticalAlign=middle;spacingLeft=4;spacingRight=4;overflow=hidden;points=[[0,0.5],[1,0.5]];portConstraint=eastwest;rotatable=0;whiteSpace=wrap;html=1;labelBackgroundColor=none;fontColor=#143642;rounded=1;sketch=1;curveFitting=1;jiggle=2;" parent="pwAhBjS30zTLEMDWYvbB-41" vertex="1">
          <mxGeometry y="30" width="140" height="30" as="geometry" />
        </mxCell>
        <mxCell id="pwAhBjS30zTLEMDWYvbB-43" value="Description" style="text;strokeColor=none;fillColor=none;align=left;verticalAlign=middle;spacingLeft=4;spacingRight=4;overflow=hidden;points=[[0,0.5],[1,0.5]];portConstraint=eastwest;rotatable=0;whiteSpace=wrap;html=1;labelBackgroundColor=none;fontColor=#143642;rounded=1;sketch=1;curveFitting=1;jiggle=2;" parent="pwAhBjS30zTLEMDWYvbB-41" vertex="1">
          <mxGeometry y="60" width="140" height="30" as="geometry" />
        </mxCell>
        <mxCell id="pwAhBjS30zTLEMDWYvbB-44" value="Price" style="text;strokeColor=none;fillColor=none;align=left;verticalAlign=middle;spacingLeft=4;spacingRight=4;overflow=hidden;points=[[0,0.5],[1,0.5]];portConstraint=eastwest;rotatable=0;whiteSpace=wrap;html=1;labelBackgroundColor=none;fontColor=#143642;rounded=1;sketch=1;curveFitting=1;jiggle=2;" parent="pwAhBjS30zTLEMDWYvbB-41" vertex="1">
          <mxGeometry y="90" width="140" height="30" as="geometry" />
        </mxCell>
        <mxCell id="pwAhBjS30zTLEMDWYvbB-51" value="Add to Cart" style="text;strokeColor=none;fillColor=none;align=left;verticalAlign=middle;spacingLeft=4;spacingRight=4;overflow=hidden;points=[[0,0.5],[1,0.5]];portConstraint=eastwest;rotatable=0;whiteSpace=wrap;html=1;labelBackgroundColor=none;fontColor=#143642;rounded=1;sketch=1;curveFitting=1;jiggle=2;" parent="pwAhBjS30zTLEMDWYvbB-41" vertex="1">
          <mxGeometry y="120" width="140" height="30" as="geometry" />
        </mxCell>
        <mxCell id="pwAhBjS30zTLEMDWYvbB-50" value="Buy Now" style="text;strokeColor=none;fillColor=none;align=left;verticalAlign=middle;spacingLeft=4;spacingRight=4;overflow=hidden;points=[[0,0.5],[1,0.5]];portConstraint=eastwest;rotatable=0;whiteSpace=wrap;html=1;labelBackgroundColor=none;fontColor=#143642;rounded=1;sketch=1;curveFitting=1;jiggle=2;" parent="pwAhBjS30zTLEMDWYvbB-41" vertex="1">
          <mxGeometry y="150" width="140" height="30" as="geometry" />
        </mxCell>
        <mxCell id="pwAhBjS30zTLEMDWYvbB-49" value="Similar Products" style="text;strokeColor=none;fillColor=none;align=left;verticalAlign=middle;spacingLeft=4;spacingRight=4;overflow=hidden;points=[[0,0.5],[1,0.5]];portConstraint=eastwest;rotatable=0;whiteSpace=wrap;html=1;labelBackgroundColor=none;fontColor=#143642;rounded=1;sketch=1;curveFitting=1;jiggle=2;" parent="pwAhBjS30zTLEMDWYvbB-41" vertex="1">
          <mxGeometry y="180" width="140" height="30" as="geometry" />
        </mxCell>
        <mxCell id="pwAhBjS30zTLEMDWYvbB-57" value="" style="edgeStyle=orthogonalEdgeStyle;rounded=1;orthogonalLoop=1;jettySize=auto;html=1;labelBackgroundColor=none;strokeColor=#A8201A;fontColor=default;shadow=0;backgroundOutline=0;sketch=1;curveFitting=1;jiggle=2;" parent="1" source="pwAhBjS30zTLEMDWYvbB-52" target="pwAhBjS30zTLEMDWYvbB-56" edge="1">
          <mxGeometry relative="1" as="geometry" />
        </mxCell>
        <mxCell id="xbocJkPdie3QbR9lWiXt-6" style="edgeStyle=orthogonalEdgeStyle;rounded=1;orthogonalLoop=1;jettySize=auto;html=1;exitX=0.25;exitY=0;exitDx=0;exitDy=0;entryX=0.25;entryY=1;entryDx=0;entryDy=0;strokeColor=#A8201A;fontColor=#143642;fillColor=#FAE5C7;shadow=0;backgroundOutline=0;sketch=1;curveFitting=1;jiggle=2;" edge="1" parent="1" source="pwAhBjS30zTLEMDWYvbB-52" target="pwAhBjS30zTLEMDWYvbB-41">
          <mxGeometry relative="1" as="geometry" />
        </mxCell>
        <mxCell id="pwAhBjS30zTLEMDWYvbB-52" value="Cart Page" style="whiteSpace=wrap;html=1;fontStyle=0;startSize=30;labelBackgroundColor=none;fillColor=#FAE5C7;strokeColor=#0F8B8D;fontColor=#143642;rounded=1;shadow=0;backgroundOutline=0;sketch=1;curveFitting=1;jiggle=2;" parent="1" vertex="1">
          <mxGeometry x="190" y="1049" width="100" height="30" as="geometry" />
        </mxCell>
        <mxCell id="xbocJkPdie3QbR9lWiXt-5" style="edgeStyle=orthogonalEdgeStyle;rounded=1;orthogonalLoop=1;jettySize=auto;html=1;entryX=1;entryY=0.5;entryDx=0;entryDy=0;strokeColor=#A8201A;fontColor=#143642;fillColor=#FAE5C7;shadow=0;backgroundOutline=0;sketch=1;curveFitting=1;jiggle=2;" edge="1" parent="1" source="pwAhBjS30zTLEMDWYvbB-54" target="pwAhBjS30zTLEMDWYvbB-41">
          <mxGeometry relative="1" as="geometry">
            <Array as="points">
              <mxPoint x="460" y="1064" />
              <mxPoint x="460" y="964" />
            </Array>
          </mxGeometry>
        </mxCell>
        <mxCell id="pwAhBjS30zTLEMDWYvbB-54" value="Wishlist Page" style="whiteSpace=wrap;html=1;fontStyle=0;startSize=30;labelBackgroundColor=none;fillColor=#FAE5C7;strokeColor=#0F8B8D;fontColor=#143642;rounded=1;shadow=0;backgroundOutline=0;sketch=1;curveFitting=1;jiggle=2;" parent="1" vertex="1">
          <mxGeometry x="330" y="1049" width="100" height="30" as="geometry" />
        </mxCell>
        <mxCell id="pwAhBjS30zTLEMDWYvbB-77" value="" style="edgeStyle=orthogonalEdgeStyle;rounded=1;orthogonalLoop=1;jettySize=auto;html=1;labelBackgroundColor=none;strokeColor=#A8201A;fontColor=default;shadow=0;backgroundOutline=0;sketch=1;curveFitting=1;jiggle=2;" parent="1" source="pwAhBjS30zTLEMDWYvbB-56" target="pwAhBjS30zTLEMDWYvbB-76" edge="1">
          <mxGeometry relative="1" as="geometry" />
        </mxCell>
        <mxCell id="pwAhBjS30zTLEMDWYvbB-56" value="Proceed to Checkout" style="rhombus;whiteSpace=wrap;html=1;fontStyle=0;startSize=30;labelBackgroundColor=none;fillColor=#FAE5C7;strokeColor=#0F8B8D;fontColor=#143642;rounded=1;shadow=0;backgroundOutline=0;sketch=1;curveFitting=1;jiggle=2;" parent="1" vertex="1">
          <mxGeometry x="190" y="1109" width="80" height="80" as="geometry" />
        </mxCell>
        <mxCell id="pwAhBjS30zTLEMDWYvbB-65" value="" style="edgeStyle=orthogonalEdgeStyle;rounded=1;orthogonalLoop=1;jettySize=auto;html=1;labelBackgroundColor=none;strokeColor=#A8201A;fontColor=default;shadow=0;backgroundOutline=0;sketch=1;curveFitting=1;jiggle=2;" parent="1" source="pwAhBjS30zTLEMDWYvbB-60" target="pwAhBjS30zTLEMDWYvbB-64" edge="1">
          <mxGeometry relative="1" as="geometry" />
        </mxCell>
        <mxCell id="pwAhBjS30zTLEMDWYvbB-60" value="Payment Gateway" style="whiteSpace=wrap;html=1;fontStyle=0;startSize=30;labelBackgroundColor=none;fillColor=#FAE5C7;strokeColor=#0F8B8D;fontColor=#143642;rounded=1;shadow=0;backgroundOutline=0;sketch=1;curveFitting=1;jiggle=2;" parent="1" vertex="1">
          <mxGeometry x="160" y="1409" width="120" height="30" as="geometry" />
        </mxCell>
        <mxCell id="pwAhBjS30zTLEMDWYvbB-67" value="Yes" style="edgeStyle=orthogonalEdgeStyle;rounded=1;orthogonalLoop=1;jettySize=auto;html=1;labelBackgroundColor=none;strokeColor=#A8201A;fontColor=default;shadow=0;backgroundOutline=0;sketch=1;curveFitting=1;jiggle=2;" parent="1" source="pwAhBjS30zTLEMDWYvbB-64" target="pwAhBjS30zTLEMDWYvbB-66" edge="1">
          <mxGeometry relative="1" as="geometry" />
        </mxCell>
        <mxCell id="pwAhBjS30zTLEMDWYvbB-69" value="" style="edgeStyle=orthogonalEdgeStyle;rounded=1;orthogonalLoop=1;jettySize=auto;html=1;labelBackgroundColor=none;strokeColor=#A8201A;fontColor=default;shadow=0;backgroundOutline=0;sketch=1;curveFitting=1;jiggle=2;" parent="1" source="pwAhBjS30zTLEMDWYvbB-64" target="pwAhBjS30zTLEMDWYvbB-68" edge="1">
          <mxGeometry relative="1" as="geometry" />
        </mxCell>
        <mxCell id="pwAhBjS30zTLEMDWYvbB-64" value="Payment success" style="rhombus;whiteSpace=wrap;html=1;fontStyle=0;startSize=30;labelBackgroundColor=none;fillColor=#FAE5C7;strokeColor=#0F8B8D;fontColor=#143642;rounded=1;shadow=0;backgroundOutline=0;sketch=1;curveFitting=1;jiggle=2;" parent="1" vertex="1">
          <mxGeometry x="180" y="1454" width="80" height="80" as="geometry" />
        </mxCell>
        <mxCell id="pwAhBjS30zTLEMDWYvbB-66" value="Order Placed" style="rounded=1;whiteSpace=wrap;html=1;fontStyle=0;startSize=30;labelBackgroundColor=none;fillColor=#FAE5C7;strokeColor=#0F8B8D;fontColor=#143642;shadow=0;backgroundOutline=0;sketch=1;curveFitting=1;jiggle=2;" parent="1" vertex="1">
          <mxGeometry x="160" y="1624" width="120" height="60" as="geometry" />
        </mxCell>
        <mxCell id="pwAhBjS30zTLEMDWYvbB-70" value="Yes" style="edgeStyle=orthogonalEdgeStyle;rounded=1;orthogonalLoop=1;jettySize=auto;html=1;entryX=0;entryY=0.5;entryDx=0;entryDy=0;exitX=0.5;exitY=1;exitDx=0;exitDy=0;labelBackgroundColor=none;strokeColor=#A8201A;fontColor=default;shadow=0;backgroundOutline=0;sketch=1;curveFitting=1;jiggle=2;" parent="1" source="pwAhBjS30zTLEMDWYvbB-68" target="pwAhBjS30zTLEMDWYvbB-66" edge="1">
          <mxGeometry relative="1" as="geometry">
            <Array as="points">
              <mxPoint x="70" y="1654" />
            </Array>
          </mxGeometry>
        </mxCell>
        <mxCell id="pwAhBjS30zTLEMDWYvbB-71" value="No" style="edgeStyle=orthogonalEdgeStyle;rounded=1;orthogonalLoop=1;jettySize=auto;html=1;labelBackgroundColor=none;strokeColor=#A8201A;fontColor=default;entryX=0;entryY=1;entryDx=0;entryDy=0;shadow=0;backgroundOutline=0;sketch=1;curveFitting=1;jiggle=2;" parent="1" source="pwAhBjS30zTLEMDWYvbB-68" target="pwAhBjS30zTLEMDWYvbB-52" edge="1">
          <mxGeometry relative="1" as="geometry">
            <Array as="points">
              <mxPoint x="70" y="1249" />
              <mxPoint x="170" y="1249" />
            </Array>
            <mxPoint x="160" y="1064" as="targetPoint" />
          </mxGeometry>
        </mxCell>
        <mxCell id="pwAhBjS30zTLEMDWYvbB-68" value="Want to proceed as COD?" style="rhombus;whiteSpace=wrap;html=1;fontStyle=0;startSize=30;labelBackgroundColor=none;fillColor=#FAE5C7;strokeColor=#0F8B8D;fontColor=#143642;rounded=1;shadow=0;backgroundOutline=0;sketch=1;curveFitting=1;jiggle=2;" parent="1" vertex="1">
          <mxGeometry x="30" y="1454" width="80" height="80" as="geometry" />
        </mxCell>
        <mxCell id="pwAhBjS30zTLEMDWYvbB-74" value="No" style="edgeStyle=orthogonalEdgeStyle;rounded=1;orthogonalLoop=1;jettySize=auto;html=1;entryX=0;entryY=0.5;entryDx=0;entryDy=0;labelBackgroundColor=none;strokeColor=#A8201A;fontColor=default;shadow=0;backgroundOutline=0;sketch=1;curveFitting=1;jiggle=2;" parent="1" source="pwAhBjS30zTLEMDWYvbB-72" target="pwAhBjS30zTLEMDWYvbB-8" edge="1">
          <mxGeometry relative="1" as="geometry" />
        </mxCell>
        <mxCell id="pwAhBjS30zTLEMDWYvbB-75" value="Yes" style="edgeStyle=orthogonalEdgeStyle;rounded=1;orthogonalLoop=1;jettySize=auto;html=1;entryX=1;entryY=0.5;entryDx=0;entryDy=0;exitX=0.5;exitY=1;exitDx=0;exitDy=0;labelBackgroundColor=none;strokeColor=#A8201A;fontColor=default;shadow=0;backgroundOutline=0;sketch=1;curveFitting=1;jiggle=2;" parent="1" source="pwAhBjS30zTLEMDWYvbB-72" target="pwAhBjS30zTLEMDWYvbB-17" edge="1">
          <mxGeometry relative="1" as="geometry" />
        </mxCell>
        <mxCell id="pwAhBjS30zTLEMDWYvbB-72" value="Continue as guest" style="rhombus;whiteSpace=wrap;html=1;rounded=1;labelBackgroundColor=none;fillColor=#FAE5C7;strokeColor=#0F8B8D;fontColor=#143642;shadow=0;backgroundOutline=0;sketch=1;curveFitting=1;jiggle=2;" parent="1" vertex="1">
          <mxGeometry x="360" y="300" width="80" height="80" as="geometry" />
        </mxCell>
        <mxCell id="pwAhBjS30zTLEMDWYvbB-79" value="Yes" style="edgeStyle=orthogonalEdgeStyle;rounded=1;orthogonalLoop=1;jettySize=auto;html=1;entryX=0.5;entryY=0;entryDx=0;entryDy=0;labelBackgroundColor=none;strokeColor=#A8201A;fontColor=default;shadow=0;backgroundOutline=0;sketch=1;curveFitting=1;jiggle=2;" parent="1" source="pwAhBjS30zTLEMDWYvbB-76" target="pwAhBjS30zTLEMDWYvbB-60" edge="1">
          <mxGeometry relative="1" as="geometry" />
        </mxCell>
        <mxCell id="pwAhBjS30zTLEMDWYvbB-80" style="edgeStyle=orthogonalEdgeStyle;rounded=1;orthogonalLoop=1;jettySize=auto;html=1;entryX=1;entryY=0.5;entryDx=0;entryDy=0;labelBackgroundColor=none;strokeColor=#A8201A;fontColor=default;shadow=0;backgroundOutline=0;sketch=1;curveFitting=1;jiggle=2;" parent="1" source="pwAhBjS30zTLEMDWYvbB-76" target="pwAhBjS30zTLEMDWYvbB-8" edge="1">
          <mxGeometry relative="1" as="geometry">
            <Array as="points">
              <mxPoint x="710" y="1130" />
              <mxPoint x="710" y="270" />
            </Array>
          </mxGeometry>
        </mxCell>
        <mxCell id="pwAhBjS30zTLEMDWYvbB-76" value="User Signed In" style="rhombus;whiteSpace=wrap;html=1;fontStyle=0;startSize=30;labelBackgroundColor=none;fillColor=#FAE5C7;strokeColor=#0F8B8D;fontColor=#143642;rounded=1;shadow=0;backgroundOutline=0;sketch=1;curveFitting=1;jiggle=2;" parent="1" vertex="1">
          <mxGeometry x="190" y="1269" width="80" height="80" as="geometry" />
        </mxCell>
        <mxCell id="xbocJkPdie3QbR9lWiXt-2" value="&lt;span&gt;Share Cart link&amp;nbsp;&lt;/span&gt;" style="edgeStyle=orthogonalEdgeStyle;rounded=1;orthogonalLoop=1;jettySize=auto;html=1;entryX=0;entryY=0;entryDx=0;entryDy=0;labelBackgroundColor=default;strokeColor=#A8201A;fontColor=default;shadow=0;backgroundOutline=0;sketch=1;curveFitting=1;jiggle=2;" edge="1" parent="1" target="pwAhBjS30zTLEMDWYvbB-52">
          <mxGeometry x="-0.1556" relative="1" as="geometry">
            <mxPoint x="40" y="989.037037037037" as="sourcePoint" />
            <mxPoint as="offset" />
          </mxGeometry>
        </mxCell>
        <mxCell id="xbocJkPdie3QbR9lWiXt-7" value="Actor" style="shape=umlActor;verticalLabelPosition=bottom;verticalAlign=top;html=1;outlineConnect=0;labelBackgroundColor=none;fillColor=#FAE5C7;strokeColor=#0F8B8D;fontColor=#143642;rounded=1;shadow=0;backgroundOutline=0;sketch=1;curveFitting=1;jiggle=2;" vertex="1" parent="1">
          <mxGeometry x="500" y="948.98" width="30" height="60" as="geometry" />
        </mxCell>
        <mxCell id="xbocJkPdie3QbR9lWiXt-8" value="Product Link (external source)" style="edgeStyle=orthogonalEdgeStyle;rounded=1;orthogonalLoop=1;jettySize=auto;html=1;entryX=0.75;entryY=0;entryDx=0;entryDy=0;labelBackgroundColor=default;strokeColor=#A8201A;fontColor=default;shadow=0;backgroundOutline=0;sketch=1;curveFitting=1;jiggle=2;" edge="1" parent="1" source="xbocJkPdie3QbR9lWiXt-7" target="pwAhBjS30zTLEMDWYvbB-41">
          <mxGeometry relative="1" as="geometry">
            <mxPoint x="750" y="938.98" as="targetPoint" />
            <Array as="points">
              <mxPoint x="515" y="909" />
              <mxPoint x="287" y="909" />
            </Array>
          </mxGeometry>
        </mxCell>
        <mxCell id="xbocJkPdie3QbR9lWiXt-9" value="Actor" style="shape=umlActor;verticalLabelPosition=bottom;verticalAlign=top;html=1;outlineConnect=0;labelBackgroundColor=none;fillColor=#FAE5C7;strokeColor=#0F8B8D;fontColor=#143642;rounded=1;shadow=0;backgroundOutline=0;sketch=1;curveFitting=1;jiggle=2;" vertex="1" parent="1">
          <mxGeometry x="10" y="959" width="30" height="60" as="geometry" />
        </mxCell>
        <mxCell id="xbocJkPdie3QbR9lWiXt-10" value="Notifications" style="edgeStyle=orthogonalEdgeStyle;rounded=1;orthogonalLoop=1;jettySize=auto;html=1;entryX=0.2;entryY=-0.026;entryDx=0;entryDy=0;entryPerimeter=0;strokeColor=#A8201A;fontColor=#143642;fillColor=#FAE5C7;shadow=0;backgroundOutline=0;sketch=1;curveFitting=1;jiggle=2;" edge="1" parent="1" source="xbocJkPdie3QbR9lWiXt-9" target="pwAhBjS30zTLEMDWYvbB-41">
          <mxGeometry relative="1" as="geometry">
            <Array as="points">
              <mxPoint x="25" y="909" />
              <mxPoint x="227" y="909" />
            </Array>
          </mxGeometry>
        </mxCell>
        <mxCell id="xbocJkPdie3QbR9lWiXt-14" value="Pre-filled search term" style="edgeStyle=orthogonalEdgeStyle;rounded=0;orthogonalLoop=1;jettySize=auto;html=1;entryX=0.5;entryY=0;entryDx=0;entryDy=0;sketch=1;curveFitting=1;jiggle=2;" edge="1" parent="1" source="xbocJkPdie3QbR9lWiXt-11" target="pwAhBjS30zTLEMDWYvbB-26">
          <mxGeometry relative="1" as="geometry">
            <Array as="points">
              <mxPoint x="100" y="430" />
            </Array>
          </mxGeometry>
        </mxCell>
        <mxCell id="xbocJkPdie3QbR9lWiXt-11" value="Actor" style="shape=umlActor;verticalLabelPosition=bottom;verticalAlign=top;html=1;outlineConnect=0;labelBackgroundColor=none;fillColor=#FAE5C7;strokeColor=#0F8B8D;fontColor=#143642;rounded=1;shadow=0;backgroundOutline=0;sketch=1;curveFitting=1;jiggle=2;" vertex="1" parent="1">
          <mxGeometry x="10" y="400" width="30" height="60" as="geometry" />
        </mxCell>
        <mxCell id="xbocJkPdie3QbR9lWiXt-24" style="edgeStyle=orthogonalEdgeStyle;rounded=0;orthogonalLoop=1;jettySize=auto;html=1;sketch=1;curveFitting=1;jiggle=2;" edge="1" parent="1" source="xbocJkPdie3QbR9lWiXt-16" target="pwAhBjS30zTLEMDWYvbB-41">
          <mxGeometry relative="1" as="geometry" />
        </mxCell>
        <mxCell id="xbocJkPdie3QbR9lWiXt-16" value="Product List / Grid&amp;nbsp;" style="whiteSpace=wrap;html=1;fillColor=#FAE5C7;strokeColor=#0F8B8D;fontColor=#143642;rounded=1;labelBackgroundColor=none;shadow=0;sketch=1;curveFitting=1;jiggle=2;" vertex="1" parent="1">
          <mxGeometry x="280" y="750" width="120" height="60" as="geometry" />
        </mxCell>
        <mxCell id="xbocJkPdie3QbR9lWiXt-20" value="Yes" style="edgeStyle=orthogonalEdgeStyle;rounded=0;orthogonalLoop=1;jettySize=auto;html=1;entryX=0.5;entryY=0;entryDx=0;entryDy=0;sketch=1;curveFitting=1;jiggle=2;" edge="1" parent="1" source="xbocJkPdie3QbR9lWiXt-18" target="pwAhBjS30zTLEMDWYvbB-41">
          <mxGeometry relative="1" as="geometry">
            <Array as="points">
              <mxPoint x="100" y="830" />
              <mxPoint x="260" y="830" />
            </Array>
          </mxGeometry>
        </mxCell>
        <mxCell id="xbocJkPdie3QbR9lWiXt-23" value="No" style="edgeStyle=orthogonalEdgeStyle;rounded=0;orthogonalLoop=1;jettySize=auto;html=1;entryX=0;entryY=0.5;entryDx=0;entryDy=0;sketch=1;curveFitting=1;jiggle=2;" edge="1" parent="1" source="xbocJkPdie3QbR9lWiXt-18" target="pwAhBjS30zTLEMDWYvbB-28">
          <mxGeometry relative="1" as="geometry" />
        </mxCell>
        <mxCell id="xbocJkPdie3QbR9lWiXt-18" value="user selects product from list" style="rhombus;whiteSpace=wrap;html=1;fillColor=#FAE5C7;strokeColor=#0F8B8D;fontColor=#143642;rounded=1;labelBackgroundColor=none;shadow=0;sketch=1;curveFitting=1;jiggle=2;" vertex="1" parent="1">
          <mxGeometry x="55" y="610" width="90" height="80" as="geometry" />
        </mxCell>
      </root>
    </mxGraphModel>
  </diagram>
</mxfile>
